<svg width="27" height="24" viewBox="0 0 27 24" fill="none" xmlns="http://www.w3.org/2000/svg">
<path fill-rule="evenodd" clip-rule="evenodd" d="M13.499 2.96249C7.90808 2.96249 3.375 6.94153 3.375 11.8502C3.375 15.7769 6.27587 19.1078 10.2993 20.2835C10.8058 20.3649 10.9904 20.0904 10.9904 19.8547C10.9904 19.6441 10.9817 19.0849 10.9767 18.3434C8.16041 18.8803 7.56624 17.1518 7.56624 17.1518C7.10561 16.1256 6.44181 15.8522 6.44181 15.8522C5.52251 15.3006 6.51144 15.3115 6.51144 15.3115C7.52766 15.3748 8.06226 16.2276 8.06226 16.2276C8.96535 17.5856 10.4322 17.1933 11.0091 16.9663C11.101 16.3918 11.3621 16.0001 11.6518 15.778C9.40359 15.5538 7.03974 14.791 7.03974 11.3854C7.03974 10.4154 7.43445 9.62205 8.08211 9.00061C7.97771 8.77581 7.63026 7.87229 8.18094 6.64854C8.18094 6.64854 9.03128 6.40956 10.9655 7.5597C11.773 7.36274 12.6394 7.26399 13.5003 7.26069C14.36 7.26399 15.2264 7.36274 16.0351 7.5597C17.9681 6.40956 18.8166 6.64854 18.8166 6.64854C19.3691 7.87229 19.0217 8.77581 18.9173 9.00061C19.5662 9.62205 19.9584 10.4154 19.9584 11.3854C19.9584 14.7998 17.5908 15.551 15.3352 15.7709C15.6988 16.0453 16.0226 16.5877 16.0226 17.417C16.0226 18.6047 16.0102 19.5634 16.0102 19.8547C16.0102 20.0926 16.1923 20.3692 16.7064 20.2825C20.7267 19.1045 23.625 15.7758 23.625 11.8502C23.625 6.94153 19.0913 2.96249 13.499 2.96249Z" fill="black"/>
</svg>
