<svg width="26" height="22" viewBox="0 0 26 22" fill="none" xmlns="http://www.w3.org/2000/svg">
<mask id="mask0_13_23" style="mask-type:luminance" maskUnits="userSpaceOnUse" x="0" y="0" width="26" height="22">
<path d="M25.0298 0.229034H0.0292969V21.9308H25.0298V0.229034Z" fill="white"/>
</mask>
<g mask="url(#mask0_13_23)">
<path d="M12.5296 2.18304C15.8695 2.18304 16.265 2.19576 17.5785 2.24662C18.7992 2.29324 19.4584 2.47127 19.8979 2.61962C20.4789 2.8146 20.8989 3.05196 21.3334 3.4292C21.7729 3.81068 22.0415 4.17096 22.2661 4.67536C22.437 5.05682 22.6421 5.63327 22.6958 6.6887C22.7544 7.83311 22.769 8.17645 22.769 11.0715C22.769 13.9707 22.7544 14.314 22.6958 15.4542C22.6421 16.5139 22.437 17.0861 22.2661 17.4675C22.0415 17.972 21.768 18.3365 21.3334 18.7137C20.894 19.0952 20.4789 19.3283 19.8979 19.5233C19.4584 19.6716 18.7943 19.8497 17.5785 19.8963C16.2601 19.9471 15.8646 19.9598 12.5296 19.9598C9.18964 19.9598 8.79412 19.9471 7.48065 19.8963C6.2599 19.8497 5.60072 19.6716 5.16124 19.5233C4.58017 19.3283 4.16024 19.091 3.72567 18.7137C3.2862 18.3322 3.01764 17.972 2.79303 17.4675C2.62213 17.0861 2.41704 16.5096 2.36333 15.4542C2.30473 14.3098 2.29009 13.9664 2.29009 11.0715C2.29009 8.17225 2.30473 7.82891 2.36333 6.6887C2.41704 5.62902 2.62213 5.05682 2.79303 4.67536C3.01764 4.17096 3.29108 3.80644 3.72567 3.4292C4.16513 3.04772 4.58017 2.8146 5.16124 2.61962C5.60072 2.47127 6.26479 2.29324 7.48065 2.24662C8.79412 2.19576 9.18964 2.18304 12.5296 2.18304ZM12.5296 0.229034C9.13594 0.229034 8.71114 0.24175 7.3781 0.292614C6.04994 0.343477 5.13683 0.529977 4.34579 0.797011C3.52058 1.07676 2.82232 1.44552 2.12895 2.05164C1.4307 2.65353 1.00588 3.25966 0.683607 3.97175C0.375984 4.66264 0.161136 5.45102 0.102541 6.60393C0.0439456 7.76529 0.0292969 8.13409 0.0292969 11.0799C0.0292969 14.0258 0.0439456 14.3945 0.102541 15.5517C0.161136 16.7046 0.375984 17.4972 0.683607 18.1839C1.00588 18.9002 1.4307 19.5063 2.12895 20.1082C2.82232 20.7101 3.52058 21.0831 4.34091 21.3586C5.13682 21.6256 6.04505 21.8121 7.3732 21.863C8.70625 21.9139 9.13105 21.9266 12.5247 21.9266C15.9183 21.9266 16.3431 21.9139 17.6762 21.863C19.0043 21.8121 19.9174 21.6256 20.7084 21.3586C21.5288 21.0831 22.2271 20.7101 22.9204 20.1082C23.6137 19.5063 24.0435 18.9002 24.3608 18.1881C24.6685 17.4972 24.8834 16.7088 24.9419 15.5559C25.0005 14.3988 25.0152 14.03 25.0152 11.0842C25.0152 8.13834 25.0005 7.76954 24.9419 6.61243C24.8834 5.45952 24.6685 4.66688 24.3608 3.98022C24.0532 3.25965 23.6284 2.65353 22.9302 2.05164C22.2368 1.44976 21.5385 1.07676 20.7182 0.801247C19.9223 0.534216 19.0141 0.347716 17.6859 0.296852C16.348 0.24175 15.9232 0.229034 12.5296 0.229034Z" fill="#000100"/>
<path d="M12.5296 5.50613C8.98459 5.50613 6.10854 8.0027 6.10854 11.0799C6.10854 14.1571 8.98459 16.6537 12.5296 16.6537C16.0745 16.6537 18.9506 14.1571 18.9506 11.0799C18.9506 8.0027 16.0745 5.50613 12.5296 5.50613ZM12.5296 14.6955C10.2297 14.6955 8.36442 13.0763 8.36442 11.0799C8.36442 9.08354 10.2297 7.46436 12.5296 7.46436C14.8294 7.46436 16.6947 9.08354 16.6947 11.0799C16.6947 13.0763 14.8294 14.6955 12.5296 14.6955Z" fill="#000100"/>
<path d="M20.7035 5.28573C20.7035 6.00632 20.0297 6.58698 19.2045 6.58698C18.3744 6.58698 17.7054 6.00207 17.7054 5.28573C17.7054 4.56516 18.3793 3.98447 19.2045 3.98447C20.0297 3.98447 20.7035 4.5694 20.7035 5.28573Z" fill="#000100"/>
</g>
</svg>
