<svg width="25" height="22" viewBox="0 0 25 22" fill="none" xmlns="http://www.w3.org/2000/svg">
<g clip-path="url(#clip0_25_7)">
<path fill-rule="evenodd" clip-rule="evenodd" d="M0.586391 2.43685C0 3.41668 0 4.70397 0 7.27854V14.4215C0 16.996 0 18.2833 0.586391 19.2631C1.08053 20.0889 1.85616 20.7621 2.80743 21.191C3.93627 21.7 5.41932 21.7 8.38542 21.7H16.6146C19.5807 21.7 21.0637 21.7 22.1926 21.191C23.1439 20.7621 23.9195 20.0889 24.4136 19.2631C25 18.2833 25 16.996 25 14.4215V7.27854C25 4.70397 25 3.41668 24.4136 2.43685C23.9195 1.61114 23.1439 0.937901 22.1926 0.508987C21.0637 0 19.5807 0 16.6146 0H8.38542C5.41932 0 3.93627 0 2.80743 0.508987C1.85616 0.937901 1.08053 1.61114 0.586391 2.43685ZM5.61135 6.73903C6.80911 6.73903 7.7801 5.89621 7.7801 4.85655C7.7801 3.81689 6.80911 2.97408 5.61135 2.97408C4.41359 2.97408 3.44261 3.81689 3.44261 4.85655C3.44261 5.89621 4.41359 6.73903 5.61135 6.73903ZM9.7663 8.13022H13.3606V9.55944C13.3606 9.55944 14.336 7.86621 16.9898 7.86621C19.3571 7.86621 21.3182 8.87847 21.3182 11.9639V18.4703H17.5935V12.7523C17.5935 10.9322 16.474 10.732 15.6209 10.732C13.8505 10.732 13.5474 12.0575 13.5474 12.9898V18.4703H9.7663V8.13022ZM7.50193 8.13022H3.72081V18.4703H7.50193V8.13022Z" fill="black"/>
</g>
<defs>
<clipPath id="clip0_25_7">
<rect width="25" height="21.7" fill="white"/>
</clipPath>
</defs>
</svg>
