<svg width="22" height="22" viewBox="0 0 22 22" fill="none" xmlns="http://www.w3.org/2000/svg">
<g clip-path="url(#clip0_25_28)">
<mask id="mask0_25_28" style="mask-type:luminance" maskUnits="userSpaceOnUse" x="0" y="0" width="22" height="22">
<path d="M22 0H0V22H22V0Z" fill="white"/>
</mask>
<g mask="url(#mask0_25_28)">
<path d="M0 7.37917C0 4.769 0 3.46392 0.516024 2.47054C0.950868 1.63342 1.63342 0.950868 2.47054 0.516024C3.46392 0 4.769 0 7.37917 0H14.6208C17.231 0 18.5361 0 19.5294 0.516024C20.3666 0.950868 21.0491 1.63342 21.484 2.47054C22 3.46392 22 4.769 22 7.37917V14.6208C22 17.231 22 18.5361 21.484 19.5294C21.0491 20.3666 20.3666 21.0491 19.5294 21.484C18.5361 22 17.231 22 14.6208 22H7.37917C4.769 22 3.46392 22 2.47054 21.484C1.63342 21.0491 0.950868 20.3666 0.516024 19.5294C0 18.5361 0 17.231 0 14.6208V7.37917Z" fill="#12100E"/>
<path d="M5.24998 7.35767C5.26836 7.17621 5.19915 6.99691 5.06367 6.87481L3.68372 5.21239V4.96407H7.96854L11.2805 12.2276L14.1922 4.96407H18.2769V5.21239L17.097 6.34365C16.9953 6.4212 16.9449 6.54866 16.9659 6.67475V14.9868C16.9449 15.1128 16.9953 15.2403 17.097 15.3179L18.2493 16.4491V16.6974H12.4534V16.4491L13.6471 15.2903C13.7644 15.173 13.7644 15.1385 13.7644 14.9592V8.2406L10.4456 16.6699H9.99707L6.13319 8.2406V13.89C6.10097 14.1275 6.17984 14.3666 6.34704 14.5384L7.89951 16.4215V16.6699H3.49742V16.4215L5.04987 14.5384C5.21588 14.3663 5.29017 14.1256 5.24998 13.89V7.35767Z" fill="white"/>
</g>
</g>
<defs>
<clipPath id="clip0_25_28">
<rect width="22" height="22" fill="white"/>
</clipPath>
</defs>
</svg>
